<svg xmlns="http://www.w3.org/2000/svg" xmlns:xlink="http://www.w3.org/1999/xlink" width="500" zoomAndPan="magnify" viewBox="0 0 375 374.999991" height="500" preserveAspectRatio="xMidYMid meet" version="1.0"><defs><clipPath id="deeecb2a89"><path d="M 58.09375 58.09375 L 316.90625 58.09375 L 316.90625 316.90625 L 58.09375 316.90625 Z M 58.09375 58.09375 " clip-rule="nonzero"/></clipPath><clipPath id="99cf81d439"><path d="M 187.5 58.09375 C 116.03125 58.09375 58.09375 116.03125 58.09375 187.5 C 58.09375 258.96875 116.03125 316.90625 187.5 316.90625 C 258.96875 316.90625 316.90625 258.96875 316.90625 187.5 C 316.90625 116.03125 258.96875 58.09375 187.5 58.09375 Z M 187.5 58.09375 " clip-rule="nonzero"/></clipPath><clipPath id="388c3642c1"><path d="M 112.5 113 L 169 113 L 169 170 L 112.5 170 Z M 112.5 113 " clip-rule="nonzero"/></clipPath><clipPath id="d0fd92b552"><path d="M 205 206 L 262 206 L 262 262.5 L 205 262.5 Z M 205 206 " clip-rule="nonzero"/></clipPath></defs><g clip-path="url(#deeecb2a89)"><g clip-path="url(#99cf81d439)"><path fill="#ffffff" d="M 58.09375 58.09375 L 316.90625 58.09375 L 316.90625 316.90625 L 58.09375 316.90625 Z M 58.09375 58.09375 " fill-opacity="1" fill-rule="nonzero"/></g></g><path fill="#000000" d="M 140.976562 122.273438 L 121.644531 141.597656 L 119.28125 139.230469 C 118.964844 138.914062 118.679688 138.566406 118.433594 138.191406 C 118.183594 137.816406 117.972656 137.421875 117.800781 137.007812 C 117.632812 136.589844 117.5 136.164062 117.414062 135.722656 C 117.328125 135.28125 117.285156 134.835938 117.285156 134.386719 C 117.285156 133.9375 117.328125 133.492188 117.414062 133.050781 C 117.5 132.609375 117.632812 132.179688 117.800781 131.765625 C 117.972656 131.347656 118.183594 130.953125 118.433594 130.578125 C 118.679688 130.203125 118.964844 129.859375 119.28125 129.539062 L 128.925781 119.90625 C 129.246094 119.589844 129.589844 119.304688 129.964844 119.054688 C 130.335938 118.804688 130.730469 118.59375 131.144531 118.421875 C 131.5625 118.25 131.988281 118.117188 132.429688 118.03125 C 132.871094 117.945312 133.316406 117.898438 133.765625 117.898438 C 134.214844 117.898438 134.660156 117.945312 135.101562 118.03125 C 135.542969 118.117188 135.96875 118.25 136.382812 118.421875 C 136.800781 118.59375 137.195312 118.804688 137.566406 119.054688 C 137.941406 119.304688 138.285156 119.589844 138.605469 119.90625 Z M 140.976562 122.273438 " fill-opacity="1" fill-rule="nonzero"/><path fill="#000000" d="M 156.082031 176.03125 L 175.40625 156.707031 L 218.289062 199.589844 L 198.964844 218.917969 Z M 156.082031 176.03125 " fill-opacity="1" fill-rule="nonzero"/><g clip-path="url(#388c3642c1)"><path fill="#000000" d="M 168.839844 122.242188 L 121.628906 169.449219 C 121.613281 169.449219 121.597656 169.433594 121.582031 169.417969 L 114.332031 162.167969 C 113.742188 161.582031 113.285156 160.90625 112.96875 160.136719 C 112.652344 159.367188 112.496094 158.566406 112.5 157.734375 C 112.5 156.894531 112.664062 156.089844 112.988281 155.3125 C 113.308594 154.539062 113.769531 153.859375 114.367188 153.269531 L 152.660156 114.972656 C 152.953125 114.683594 153.269531 114.421875 153.609375 114.191406 C 153.953125 113.960938 154.3125 113.765625 154.695312 113.605469 C 155.074219 113.449219 155.46875 113.328125 155.871094 113.246094 C 156.273438 113.164062 156.683594 113.121094 157.097656 113.121094 C 157.507812 113.121094 157.917969 113.15625 158.320312 113.238281 C 158.726562 113.316406 159.121094 113.433594 159.5 113.589844 C 159.882812 113.746094 160.246094 113.9375 160.589844 114.164062 C 160.933594 114.394531 161.25 114.652344 161.542969 114.941406 L 168.8125 122.210938 Z M 168.839844 122.242188 " fill-opacity="1" fill-rule="nonzero"/></g><path fill="#000000" d="M 255.105469 246.085938 L 245.472656 255.734375 C 245.152344 256.050781 244.804688 256.332031 244.429688 256.578125 C 244.054688 256.828125 243.660156 257.035156 243.246094 257.207031 C 242.828125 257.378906 242.402344 257.507812 241.960938 257.59375 C 241.519531 257.679688 241.074219 257.726562 240.625 257.726562 C 240.175781 257.726562 239.730469 257.679688 239.289062 257.59375 C 238.847656 257.507812 238.421875 257.378906 238.003906 257.207031 C 237.589844 257.035156 237.195312 256.828125 236.820312 256.578125 C 236.445312 256.332031 236.097656 256.050781 235.777344 255.734375 L 233.414062 253.367188 L 252.742188 234.042969 L 255.105469 236.40625 C 255.421875 236.722656 255.707031 237.070312 255.957031 237.445312 C 256.207031 237.816406 256.417969 238.210938 256.589844 238.625 C 256.761719 239.042969 256.894531 239.46875 256.980469 239.910156 C 257.070312 240.351562 257.113281 240.796875 257.113281 241.246094 C 257.113281 241.695312 257.070312 242.140625 256.980469 242.582031 C 256.894531 243.023438 256.761719 243.449219 256.589844 243.867188 C 256.417969 244.28125 256.207031 244.675781 255.957031 245.050781 C 255.707031 245.421875 255.421875 245.769531 255.105469 246.085938 Z M 255.105469 246.085938 " fill-opacity="1" fill-rule="nonzero"/><g clip-path="url(#d0fd92b552)"><path fill="#000000" d="M 260.039062 222.355469 L 221.742188 260.648438 C 221.449219 260.941406 221.132812 261.203125 220.785156 261.433594 C 220.441406 261.664062 220.078125 261.859375 219.695312 262.019531 C 219.3125 262.175781 218.917969 262.296875 218.511719 262.378906 C 218.101562 262.460938 217.691406 262.5 217.277344 262.5 C 216.863281 262.5 216.453125 262.460938 216.046875 262.378906 C 215.636719 262.296875 215.242188 262.175781 214.859375 262.019531 C 214.476562 261.859375 214.113281 261.664062 213.769531 261.433594 C 213.421875 261.203125 213.105469 260.941406 212.8125 260.648438 L 205.59375 253.429688 C 205.566406 253.40625 205.546875 253.378906 205.53125 253.351562 L 252.742188 206.140625 L 260.039062 213.4375 C 260.332031 213.730469 260.589844 214.050781 260.820312 214.394531 C 261.050781 214.738281 261.242188 215.101562 261.402344 215.484375 C 261.558594 215.867188 261.679688 216.261719 261.761719 216.667969 C 261.839844 217.074219 261.882812 217.484375 261.882812 217.898438 C 261.882812 218.3125 261.839844 218.71875 261.761719 219.125 C 261.679688 219.53125 261.558594 219.925781 261.402344 220.308594 C 261.242188 220.691406 261.050781 221.054688 260.820312 221.398438 C 260.589844 221.742188 260.332031 222.0625 260.039062 222.355469 Z M 260.039062 222.355469 " fill-opacity="1" fill-rule="nonzero"/></g><path fill="#000000" d="M 193.828125 133.882812 L 133.269531 194.441406 C 132.679688 195.035156 132 195.496094 131.230469 195.820312 C 130.460938 196.148438 129.65625 196.316406 128.820312 196.324219 L 128.742188 196.324219 C 127.917969 196.328125 127.125 196.175781 126.363281 195.859375 C 125.601562 195.542969 124.933594 195.089844 124.355469 194.503906 L 117.117188 187.285156 C 116.523438 186.691406 116.066406 186.003906 115.75 185.226562 C 115.429688 184.449219 115.273438 183.640625 115.28125 182.800781 C 115.285156 181.960938 115.449219 181.152344 115.773438 180.378906 C 116.09375 179.601562 116.554688 178.917969 117.148438 178.320312 L 177.707031 117.761719 C 178 117.46875 178.320312 117.207031 178.664062 116.976562 C 179.007812 116.75 179.371094 116.554688 179.753906 116.394531 C 180.136719 116.238281 180.53125 116.117188 180.9375 116.039062 C 181.34375 115.957031 181.753906 115.917969 182.164062 115.917969 C 182.578125 115.917969 182.988281 115.957031 183.394531 116.039062 C 183.800781 116.117188 184.195312 116.238281 184.578125 116.394531 C 184.960938 116.554688 185.324219 116.75 185.667969 116.976562 C 186.011719 117.207031 186.332031 117.46875 186.625 117.761719 L 193.859375 124.996094 C 194.152344 125.289062 194.414062 125.605469 194.640625 125.949219 C 194.871094 126.292969 195.066406 126.65625 195.222656 127.039062 C 195.378906 127.417969 195.5 127.8125 195.578125 128.21875 C 195.65625 128.625 195.695312 129.03125 195.695312 129.445312 C 195.695312 129.859375 195.652344 130.265625 195.570312 130.671875 C 195.488281 131.078125 195.367188 131.46875 195.207031 131.851562 C 195.046875 132.230469 194.847656 132.59375 194.617188 132.933594 C 194.386719 133.277344 194.121094 133.589844 193.828125 133.882812 Z M 193.828125 133.882812 " fill-opacity="1" fill-rule="nonzero"/><path fill="#000000" d="M 259.078125 192.824219 C 259.074219 193.65625 258.914062 194.460938 258.59375 195.230469 C 258.273438 196.003906 257.816406 196.683594 257.226562 197.273438 L 196.660156 257.832031 C 196.058594 258.433594 195.367188 258.894531 194.582031 259.222656 C 193.800781 259.546875 192.984375 259.710938 192.132812 259.714844 C 191.308594 259.71875 190.511719 259.558594 189.75 259.246094 C 188.984375 258.929688 188.3125 258.480469 187.730469 257.894531 L 180.480469 250.628906 C 179.882812 250.039062 179.425781 249.355469 179.109375 248.582031 C 178.792969 247.804688 178.644531 247 178.65625 246.160156 C 178.664062 245.324219 178.832031 244.519531 179.15625 243.75 C 179.484375 242.980469 179.945312 242.300781 180.539062 241.710938 L 241.101562 181.152344 C 241.390625 180.859375 241.707031 180.597656 242.050781 180.367188 C 242.390625 180.136719 242.753906 179.941406 243.132812 179.785156 C 243.515625 179.625 243.90625 179.503906 244.3125 179.421875 C 244.714844 179.339844 245.125 179.300781 245.535156 179.296875 C 245.949219 179.296875 246.355469 179.335938 246.761719 179.414062 C 247.167969 179.492188 247.558594 179.609375 247.941406 179.765625 C 248.324219 179.921875 248.6875 180.117188 249.03125 180.34375 C 249.375 180.570312 249.691406 180.828125 249.984375 181.121094 L 257.25 188.386719 C 257.84375 188.972656 258.296875 189.648438 258.613281 190.417969 C 258.929688 191.191406 259.085938 191.992188 259.078125 192.824219 Z M 259.078125 192.824219 " fill-opacity="1" fill-rule="nonzero"/></svg>